<svg width="182" height="36" viewBox="0 0 182 36" fill="none" xmlns="http://www.w3.org/2000/svg">
<rect x="0.191803" width="36" height="36" rx="6.75" fill="#D5EE84"/>
<path d="M18.186 9.86063L26.0047 17.0212L28.3166 14.9006L18.186 5.625L8.0666 14.9062L10.3785 17.0212L18.186 9.86063Z" fill="#183225"/>
<path d="M8.06641 22.1516L10.3783 24.2666L16.5545 18.6022V30.9379H19.8283V18.6135L26.0045 24.2666L28.3164 22.1516L18.1858 12.876L8.06641 22.1516Z" fill="#183225"/>
<path d="M181.384 19.2375V26.2913H179.044V19.8112C179.044 19.3087 178.92 18.8512 178.672 18.4387C178.432 18.0262 178.106 17.7 177.694 17.46C177.289 17.2125 176.831 17.0887 176.321 17.0887C175.826 17.0887 175.372 17.2125 174.96 17.46C174.547 17.7 174.217 18.0262 173.97 18.4387C173.722 18.8512 173.599 19.3087 173.599 19.8112V26.2913H171.259V15.0412H173.599V16.2337C173.989 15.7687 174.469 15.4012 175.039 15.1312C175.609 14.8612 176.224 14.7262 176.884 14.7262C177.716 14.7262 178.474 14.9287 179.156 15.3337C179.839 15.7387 180.379 16.2825 180.776 16.965C181.181 17.6475 181.384 18.405 181.384 19.2375Z" fill="#0F1B15"/>
<path d="M166.09 15.0413H168.43V26.2913H166.09V15.0413ZM167.282 13.41C166.922 13.41 166.622 13.2938 166.382 13.0613C166.142 12.8288 166.022 12.5363 166.022 12.1838C166.022 11.8388 166.142 11.55 166.382 11.3175C166.622 11.0775 166.918 10.9575 167.271 10.9575C167.616 10.9575 167.908 11.0775 168.148 11.3175C168.388 11.55 168.508 11.8388 168.508 12.1838C168.508 12.5363 168.388 12.8288 168.148 13.0613C167.916 13.2938 167.627 13.41 167.282 13.41Z" fill="#0F1B15"/>
<path d="M145.87 26.2913V15.0412H148.21V16.2337C148.6 15.7687 149.076 15.4012 149.638 15.1312C150.208 14.8612 150.823 14.7262 151.483 14.7262C152.286 14.7262 153.025 14.9212 153.7 15.3112C154.375 15.6937 154.911 16.2037 155.308 16.8412C155.706 16.2037 156.235 15.6937 156.895 15.3112C157.562 14.9212 158.297 14.7262 159.1 14.7262C159.932 14.7262 160.69 14.9287 161.372 15.3337C162.055 15.7387 162.598 16.2825 163.003 16.965C163.408 17.6475 163.611 18.405 163.611 19.2375V26.2913H161.271V19.8337C161.271 19.3387 161.151 18.885 160.911 18.4725C160.671 18.06 160.348 17.7262 159.943 17.4712C159.538 17.2162 159.088 17.0887 158.593 17.0887C158.098 17.0887 157.648 17.2087 157.243 17.4487C156.838 17.6887 156.516 18.015 156.276 18.4275C156.036 18.84 155.916 19.3087 155.916 19.8337V26.2913H153.576V19.8337C153.576 19.3087 153.456 18.84 153.216 18.4275C152.976 18.015 152.65 17.6887 152.237 17.4487C151.832 17.2087 151.382 17.0887 150.887 17.0887C150.4 17.0887 149.95 17.2162 149.537 17.4712C149.132 17.7262 148.81 18.06 148.57 18.4725C148.33 18.885 148.21 19.3387 148.21 19.8337V26.2913H145.87Z" fill="#0F1B15"/>
<path d="M140.61 9.41625H142.95V26.2913H140.61V24.6375C140.242 25.2225 139.762 25.695 139.17 26.055C138.577 26.4075 137.883 26.5838 137.088 26.5838C136.271 26.5838 135.506 26.43 134.793 26.1225C134.081 25.815 133.451 25.3913 132.903 24.8513C132.363 24.3038 131.94 23.6738 131.632 22.9613C131.325 22.2488 131.171 21.4838 131.171 20.6663C131.171 19.8488 131.325 19.0838 131.632 18.3713C131.94 17.6513 132.363 17.0213 132.903 16.4813C133.451 15.9338 134.081 15.5063 134.793 15.1988C135.506 14.8913 136.271 14.7375 137.088 14.7375C137.883 14.7375 138.577 14.9175 139.17 15.2775C139.762 15.63 140.242 16.095 140.61 16.6725V9.41625ZM137.111 24.3225C137.771 24.3225 138.348 24.1613 138.843 23.8388C139.338 23.5088 139.721 23.0663 139.991 22.5113C140.268 21.9563 140.407 21.3413 140.407 20.6663C140.407 19.9838 140.268 19.365 139.991 18.81C139.713 18.255 139.327 17.8163 138.832 17.4938C138.345 17.1638 137.771 16.9988 137.111 16.9988C136.458 16.9988 135.862 17.1638 135.322 17.4938C134.79 17.8238 134.362 18.2663 134.04 18.8213C133.725 19.3763 133.567 19.9913 133.567 20.6663C133.567 21.3488 133.728 21.9675 134.051 22.5225C134.381 23.07 134.812 23.5088 135.345 23.8388C135.885 24.1613 136.473 24.3225 137.111 24.3225Z" fill="#0F1B15"/>
<path d="M122.022 10.5413H124.755L130.482 26.2913H128.007L126.915 23.2988H119.862L118.782 26.2913H116.295L122.022 10.5413ZM120.728 20.9588H126.049L123.383 13.6463L120.728 20.9588Z" fill="#0F1B15"/>
<path d="M108.876 17.3813H106.513L106.502 26.2913H104.162L104.173 17.3813H102.385V15.0413H104.173L104.162 11.5088H106.502L106.513 15.0413H108.876V17.3813Z" fill="#0F1B15"/>
<path d="M96.3521 26.505C95.7596 26.4675 95.1821 26.3475 94.6196 26.145C94.0571 25.9425 93.5621 25.6688 93.1346 25.3238C92.7146 24.9713 92.3996 24.5588 92.1896 24.0863L94.1808 23.2313C94.2783 23.4338 94.4471 23.6325 94.6871 23.8275C94.9346 24.0225 95.2233 24.1838 95.5533 24.3113C95.8833 24.4313 96.2283 24.4913 96.5883 24.4913C96.9408 24.4913 97.2671 24.4425 97.5671 24.345C97.8746 24.24 98.1258 24.0825 98.3208 23.8725C98.5158 23.6625 98.6133 23.4113 98.6133 23.1188C98.6133 22.7888 98.5008 22.5338 98.2758 22.3538C98.0583 22.1663 97.7846 22.0238 97.4546 21.9263C97.1246 21.8288 96.7946 21.735 96.4646 21.645C95.7296 21.48 95.0546 21.255 94.4396 20.97C93.8321 20.6775 93.3483 20.3063 92.9883 19.8563C92.6283 19.3988 92.4483 18.84 92.4483 18.18C92.4483 17.46 92.6433 16.8375 93.0333 16.3125C93.4233 15.78 93.9333 15.3713 94.5633 15.0863C95.2008 14.8013 95.8796 14.6588 96.5996 14.6588C97.4996 14.6588 98.3246 14.85 99.0746 15.2325C99.8246 15.615 100.398 16.14 100.796 16.8075L98.9396 17.91C98.8271 17.685 98.6583 17.4825 98.4333 17.3025C98.2083 17.1225 97.9533 16.98 97.6683 16.875C97.3833 16.7625 97.0871 16.6988 96.7796 16.6838C96.3971 16.6688 96.0408 16.7138 95.7108 16.8188C95.3883 16.9163 95.1296 17.0738 94.9346 17.2913C94.7396 17.5088 94.6421 17.7863 94.6421 18.1238C94.6421 18.4538 94.7583 18.7013 94.9908 18.8663C95.2233 19.0238 95.5158 19.1513 95.8683 19.2488C96.2283 19.3463 96.5958 19.455 96.9708 19.575C97.6383 19.785 98.2646 20.0438 98.8496 20.3513C99.4346 20.6513 99.9071 21.0225 100.267 21.465C100.627 21.9075 100.8 22.4475 100.785 23.085C100.785 23.79 100.571 24.4088 100.143 24.9413C99.7233 25.4738 99.1758 25.8788 98.5008 26.1563C97.8258 26.4338 97.1096 26.55 96.3521 26.505Z" fill="#0F1B15"/>
<path d="M85.2875 26.5837C84.2525 26.5837 83.3075 26.3175 82.4525 25.785C81.605 25.2525 80.9263 24.54 80.4163 23.6475C79.9138 22.7475 79.6625 21.7537 79.6625 20.6662C79.6625 19.8412 79.8088 19.0725 80.1013 18.36C80.3938 17.64 80.795 17.01 81.305 16.47C81.8225 15.9225 82.4225 15.495 83.105 15.1875C83.7875 14.88 84.515 14.7262 85.2875 14.7262C86.15 14.7262 86.9413 14.9062 87.6613 15.2662C88.3813 15.6187 88.9963 16.11 89.5063 16.74C90.0163 17.3625 90.3913 18.0825 90.6313 18.9C90.8713 19.71 90.9425 20.5725 90.845 21.4875H82.1713C82.2688 22.005 82.4563 22.4737 82.7338 22.8937C83.0188 23.3062 83.3788 23.6325 83.8138 23.8725C84.2563 24.1125 84.7475 24.2362 85.2875 24.2437C85.8575 24.2437 86.375 24.1012 86.84 23.8162C87.3125 23.5312 87.6988 23.1375 87.9988 22.635L90.3725 23.1862C89.9225 24.1837 89.2438 25.0013 88.3363 25.6388C87.4288 26.2688 86.4125 26.5837 85.2875 26.5837ZM82.0925 19.6987H88.4825C88.4075 19.1587 88.2163 18.6712 87.9088 18.2362C87.6088 17.7937 87.23 17.445 86.7725 17.19C86.3225 16.9275 85.8275 16.7962 85.2875 16.7962C84.755 16.7962 84.26 16.9237 83.8025 17.1787C83.3525 17.4337 82.9775 17.7825 82.6775 18.225C82.385 18.66 82.19 19.1512 82.0925 19.6987Z" fill="#0F1B15"/>
<path d="M72.466 26.2913V15.0412H74.806V16.2337C75.196 15.7687 75.676 15.4012 76.246 15.1312C76.816 14.8612 77.431 14.7262 78.091 14.7262C78.511 14.7262 78.9273 14.7825 79.3398 14.895L78.406 17.2575C78.1135 17.145 77.821 17.0887 77.5285 17.0887C77.0335 17.0887 76.5798 17.2125 76.1673 17.46C75.7548 17.7 75.4248 18.0262 75.1773 18.4387C74.9298 18.8512 74.806 19.3087 74.806 19.8112V26.2913H72.466Z" fill="#0F1B15"/>
<path d="M64.7985 26.5837C63.7635 26.5837 62.8185 26.3175 61.9635 25.785C61.116 25.2525 60.4372 24.54 59.9272 23.6475C59.4247 22.7475 59.1735 21.7537 59.1735 20.6662C59.1735 19.8412 59.3197 19.0725 59.6122 18.36C59.9047 17.64 60.306 17.01 60.816 16.47C61.3335 15.9225 61.9335 15.495 62.616 15.1875C63.2985 14.88 64.026 14.7262 64.7985 14.7262C65.8335 14.7262 66.7747 14.9925 67.6222 15.525C68.4772 16.0575 69.156 16.7737 69.6585 17.6737C70.1685 18.5737 70.4235 19.5712 70.4235 20.6662C70.4235 21.4837 70.2772 22.2488 69.9847 22.9613C69.6922 23.6737 69.2872 24.3038 68.7697 24.8512C68.2597 25.3912 67.6635 25.815 66.981 26.1225C66.306 26.43 65.5785 26.5837 64.7985 26.5837ZM64.7985 24.2437C65.421 24.2437 65.9797 24.0787 66.4747 23.7487C66.9697 23.4187 67.3597 22.9837 67.6447 22.4437C67.9372 21.8962 68.0835 21.3037 68.0835 20.6662C68.0835 20.0137 67.9335 19.4137 67.6335 18.8662C67.341 18.3187 66.9472 17.8837 66.4522 17.5612C65.9572 17.2312 65.406 17.0662 64.7985 17.0662C64.1835 17.0662 63.6247 17.2312 63.1222 17.5612C62.6272 17.8912 62.2335 18.33 61.941 18.8775C61.656 19.425 61.5135 20.0212 61.5135 20.6662C61.5135 21.3337 61.6635 21.9375 61.9635 22.4775C62.2635 23.0175 62.661 23.4487 63.156 23.7712C63.6585 24.0862 64.206 24.2437 64.7985 24.2437Z" fill="#0F1B15"/>
<path d="M49.6918 26.2913V10.5413H58.9731V12.8813H52.0318V16.6838H57.8931V19.0238H52.0318V26.2913H49.6918Z" fill="#0F1B15"/>
</svg>
