<?xml version="1.0" standalone="no"?>
<!DOCTYPE svg PUBLIC "-//W3C//DTD SVG 20010904//EN"
 "http://www.w3.org/TR/2001/REC-SVG-20010904/DTD/svg10.dtd">
<svg version="1.0" xmlns="http://www.w3.org/2000/svg"
 width="400.000000pt" height="400.000000pt" viewBox="0 0 400.000000 400.000000"
 preserveAspectRatio="xMidYMid meet">

<g transform="translate(0.000000,400.000000) scale(0.100000,-0.100000)"
fill="#000000" stroke="none">
<path d="M0 2000 l0 -2000 2000 0 2000 0 0 2000 0 2000 -2000 0 -2000 0 0
-2000z m2271 811 c16 -16 29 -37 29 -46 0 -14 -107 -369 -126 -420 -5 -13 20
-15 209 -15 199 0 216 -1 240 -20 34 -27 41 -63 21 -102 -54 -105 -651 -1078
-675 -1100 -40 -38 -81 -37 -120 1 -16 16 -29 36 -29 45 0 8 36 160 80 337 44
177 78 325 75 329 -3 4 -98 8 -211 9 -114 0 -215 3 -226 7 -10 3 -25 18 -33
34 -14 27 -10 64 45 468 33 241 60 442 60 446 0 4 12 18 26 31 l27 25 289 0
290 0 29 -29z"/>
</g>
</svg>
