<?xml version="1.0" standalone="no"?>
<!DOCTYPE svg PUBLIC "-//W3C//DTD SVG 20010904//EN"
 "http://www.w3.org/TR/2001/REC-SVG-20010904/DTD/svg10.dtd">
<svg version="1.0" xmlns="http://www.w3.org/2000/svg"
 width="400.000000pt" height="400.000000pt" viewBox="0 0 400.000000 400.000000"
 preserveAspectRatio="xMidYMid meet">

<g transform="translate(0.000000,400.000000) scale(0.100000,-0.100000)"
fill="#000000" stroke="none">
<path d="M0 2000 l0 -2000 2000 0 2000 0 0 2000 0 2000 -2000 0 -2000 0 0
-2000z m2539 544 c47 -33 62 -124 25 -155 -8 -6 -11 -15 -8 -20 3 -5 2 -9 -3
-8 -14 2 -53 -13 -53 -21 0 -13 -67 6 -99 29 -52 37 -51 139 2 176 29 20 106
19 136 -1z m-1049 -262 c47 -23 59 -36 85 -86 l30 -60 3 -248 4 -248 -81 0
c-93 0 -94 1 -107 101 l-7 51 -22 -46 c-38 -80 -98 -116 -190 -116 -147 0
-226 99 -197 244 14 70 41 107 99 136 37 19 67 23 174 28 l129 5 0 29 c0 75
-113 107 -171 49 -16 -16 -29 -39 -29 -50 0 -12 -6 -21 -16 -21 -32 0 -159 23
-168 31 -5 4 -1 29 8 55 47 138 138 188 321 179 62 -4 92 -11 135 -33z m722 2
c88 -63 131 -220 108 -394 -17 -129 -58 -203 -133 -242 -58 -30 -156 -30 -214
0 -41 21 -91 80 -95 112 -1 8 -5 -57 -8 -145 l-5 -160 -97 -3 -98 -3 0 426 0
425 53 1 c58 1 110 -1 115 -6 2 -1 8 -32 14 -69 12 -71 22 -83 31 -38 8 37 78
109 119 121 18 6 64 9 101 7 56 -3 76 -9 109 -32z m893 8 c51 -28 65 -39 97
-82 35 -48 58 -134 58 -219 l0 -71 -225 -2 -224 -3 19 -42 c22 -50 67 -76 127
-75 61 0 80 9 103 48 14 22 29 34 44 34 28 0 128 -29 140 -41 12 -11 -20 -86
-53 -122 -41 -46 -101 -74 -176 -86 -71 -10 -95 -9 -175 11 -136 34 -221 159
-223 328 -2 175 77 295 223 337 69 20 215 11 265 -15z m-2147 10 c8 -1 12 -26
12 -85 l0 -83 -61 -54 c-112 -100 -172 -154 -233 -212 l-61 -58 178 0 177 0 0
-85 0 -85 -289 0 c-159 0 -295 2 -303 5 -10 4 -12 25 -8 88 l5 82 75 70 c134
126 195 182 223 207 15 14 27 28 27 32 0 3 -72 6 -160 6 l-160 0 0 83 c0 46 2
86 4 88 4 4 549 5 574 1z m1595 1 c16 -4 17 -29 17 -334 l0 -330 -97 3 -98 3
-3 327 c-2 305 -1 327 15 330 26 6 145 7 166 1z m918 -15 c4 -6 11 -38 14 -70
4 -32 10 -58 13 -58 4 0 17 23 29 50 25 57 77 90 143 90 l40 0 0 -94 0 -93
-67 -6 c-83 -7 -97 -12 -117 -43 -23 -34 -24 -50 -25 -247 l-1 -178 -97 3 -98
3 -3 324 c-1 218 1 327 8 331 18 11 153 2 161 -12z"/>
<path d="M1206 1877 c-59 -89 126 -123 188 -35 9 12 16 30 16 40 0 16 -11 18
-95 18 -87 0 -96 -2 -109 -23z"/>
<path d="M1932 2120 c-42 -26 -62 -73 -62 -147 0 -134 100 -213 196 -154 48
29 63 73 61 169 -2 83 -3 84 -40 118 -30 28 -45 34 -79 34 -25 0 -57 -8 -76
-20z"/>
<path d="M2903 2147 c-38 -14 -68 -43 -77 -73 -7 -22 -5 -22 120 -23 l126 -2
-7 28 c-9 36 -19 48 -59 67 -39 18 -59 19 -103 3z"/>
</g>
</svg>
